<svg xmlns="http://www.w3.org/2000/svg" viewBox="0 0 54.27 71.96"><g id="Camada_2" data-name="Camada 2"><g id="Camada_1-2" data-name="Camada 1"><path d="M.82,24.55l3,.67c.27-1.36,1.15-2.57.26-4a9.08,9.08,0,0,1-.5-1.15c-.29-.61-.3-.61-1.05-.58l-.38-.82c.72-.4.57-.94.38-1.55C1.8,14.61,1,12.09.34,9.54A11.48,11.48,0,0,1,0,7.06c0-.63.37-.82.87-.43a4,4,0,0,1,.83,1c.59,1,1.13,2,1.7,3,.14.24.33.46.61.84.51-.78.93-1.42,1.36-2.05C6,8.55,6.55,7.68,7.18,6.84c.47-.63.82-.68,1.43-.19a1.21,1.21,0,0,0,1.33.18l5.19-2a11.13,11.13,0,0,1,1.06-.48,2.52,2.52,0,0,1,.82,0c0,.29,0,.65-.13.84a14.12,14.12,0,0,1-1.35,1.44,12.1,12.1,0,0,1-1.14,1,1,1,0,0,0-.33,1.12c.17.55.31,1.1.5,1.63.31.85.47.91,1.22.44l6-3.76C23,6.3,24.2,5.55,25.4,4.82a1.07,1.07,0,0,1,.76-.11,17.85,17.85,0,0,1-3.38,2.45c-1.14.79-2.32,1.53-3.64,2.4l.66.25A1.26,1.26,0,0,1,20.24,12a14,14,0,0,0-3.18,3.87c-.61,1.24-1.28,2.45-1.89,3.69a3.7,3.7,0,0,1-1.63,1.73,3.63,3.63,0,0,0-1.91,1.84,17.42,17.42,0,0,0-1,3c-.18.73-.13.79.61,1s1.63.41,2.44.62.74.23.57.91c-.32,1.3-.66,2.6-1,3.88-1.25.21-1.26.21-1.08,1.5.05.35.15.69.26,1.21a3.9,3.9,0,0,0,.46-.54A19.82,19.82,0,0,1,18.19,28C21,25.56,24.28,24.39,28,25.26a7.08,7.08,0,0,1,4.43,2.84.88.88,0,0,0,1,.39,6.66,6.66,0,0,1,6.88,2.68,11.59,11.59,0,0,1,2.37,4,1.15,1.15,0,0,0,.49-1.41,1.19,1.19,0,0,0-.09-.15,1.78,1.78,0,0,1,0-2.62c.11-.11.07-.37.1-.56a5.67,5.67,0,0,0-.58-.05,2.85,2.85,0,0,0-.47.17L39,24.91c.56-.2,1-.36,1.45-.5s1.1-.32,1.64-.49c.84-.27.86-.33.63-1.14-.11-.37-.24-.74-.32-1.12a1.41,1.41,0,0,0-.88-1.16.77.77,0,0,1-.46-.4c-.24-.76-.88-.89-1.52-1.09a10.05,10.05,0,0,1-3.6-2,7.79,7.79,0,0,0-2.41-1.36c-.93-.34-1.87-.63-2.82-.91-.36-.11-.8-.19-.74-.62a2.1,2.1,0,0,1,.54-1,1,1,0,0,1,.57-.23l3.53-.64.6-.17a7,7,0,0,0-.81-1.2C33,9.62,31.5,8.33,30,7.07c-.71-.6-1-1-.74-1.47a1.47,1.47,0,0,1,1.77-.47,4.87,4.87,0,0,1,.88.45c.86.55,1.7,1.12,2.56,1.67a6.55,6.55,0,0,0,.58.32l.13-.14a3.31,3.31,0,0,0-.38-.52c-1.1-1.1-2.22-2.18-3.31-3.3a3.42,3.42,0,0,1-.7-1.12.9.9,0,0,1,.39-1.17,1.16,1.16,0,0,0,.48-.59.88.88,0,0,1,1-.7,6.84,6.84,0,0,1,2.08.46,29.37,29.37,0,0,1,7,4.69,1.24,1.24,0,0,0,.33.14,4,4,0,0,0-.1-.63c-.38-.94-.77-1.88-1.16-2.82a4.69,4.69,0,0,1-.27-.67C40.37.39,41-.22,41.75.08a2.32,2.32,0,0,1,1,.8,24.29,24.29,0,0,1,4.82,13.33,1.36,1.36,0,0,1,0,.45c-.42,1.28.12,2.41.55,3.56.32.87.66,1.74,1,2.6s.44.87,1.28.62,1.88-.6,2.83-.89c.28-.08.57-.13,1-.23,0,.47,0,.86,0,1.23-.09,1.17-.24,2.33-.3,3.5a1.26,1.26,0,0,1-1.1,1.39,3.35,3.35,0,0,0-.74.37c.46.57.86,1.08,1.28,1.57s.57.68.27,1.19c-.08.15,0,.4,0,.61a6.39,6.39,0,0,1,.13,1.06,8.39,8.39,0,0,0,.23,2.49,3.28,3.28,0,0,1-.21,1.74c-.74,2-1.56,3.9-2.31,5.86a12.38,12.38,0,0,0-.65,2.23c-.39,1.94-.66,3.9-1.08,5.83a12.19,12.19,0,0,1-1,2.52,6.37,6.37,0,0,0-.46,2.72c0,.53.25.7.74.59l1.38-.28-2.34,2,.14.18.74-1.3a3.78,3.78,0,0,0-.87.17C45.11,57.4,42,58.8,39,60.24c-1.16.54-1.25.91-.71,2.32,2-1,4.09-1.92,6.15-2.84a38.22,38.22,0,0,1,6.36-2.19,18.62,18.62,0,0,0-2.6,2l.09.24,1.62-.17c-2.8.88-5.75,1.71-8.62,2.74-2,.71-3.91,1.65-5.85,2.54-.79.36-.73.4-.3,1.1a2.22,2.22,0,0,1,.33,1.16,4.93,4.93,0,0,1-3.33,4.3c-1.13.38-1.87-.1-1.84-1.3a4.68,4.68,0,0,1,2.59-4.4c1-.54,2-1.2,3-1.8l.39-.22-.06-.23c-.51-.22-1-.47-1.54-.64a.72.72,0,0,0-.56.17c-1.21,1.08-2.4,2.17-3.59,3.27a.64.64,0,0,0-.2.39c-.1,1.12-.93,1.61-1.77,2.09a4.12,4.12,0,0,1-.83.37,1.41,1.41,0,0,0-1.2,1.44.92.92,0,0,1-.35.59.71.71,0,0,1-.57.06c-.11,0-.14-.29-.2-.45a.33.33,0,0,1,0-.17l1.7-5.06a3.93,3.93,0,0,0-.7-.26c-3-.62-5.9-1.34-8.89-1.79a63.59,63.59,0,0,0-6.63-.38c-1.23-.05-2.46,0-3.68-.1A42.59,42.59,0,0,1,20.25,63c-.07-.77-.55-.93-1-1.07-.91-.3-1.83-.58-2.76-.81q-3.5-.87-7-1.67a6.17,6.17,0,0,0-1.29,0l-.08.18,1.47,1.23,0,.08L6.46,59.27l0-.2c.31,0,.62,0,.93,0l6,.64c.15,0,.3.1.44.08s.46-.07.53-.19,0-.39-.09-.58a.6.6,0,0,0-.24-.26c-.41-.29-.63-.61-.35-1.14s-.1-.71-.43-1L7.39,52.34C6.91,52,6.44,51.61,6,51.27a1.37,1.37,0,0,1-.69-1c-.06-.57-.44-.84-1-1-1.47-.55-1.42-.57-1.31-2.12.06-.83,0-1.68-.06-2.51l-.21-7.83a2.89,2.89,0,0,1,0-.72,2,2,0,0,0-.48-2,1.51,1.51,0,0,1-.17-.84,2.72,2.72,0,0,1,.12-.62c.27-1.37.27-1.4-1.07-1.62-.59-.09-.83-.3-.77-.92C.52,28.3.65,26.51.82,24.55ZM29.24,41l-.17-.21c-.3.16-.61.3-.91.48a11.38,11.38,0,0,1-5.11,1.56l-3.77.26a9.36,9.36,0,0,0-4.82,1.81A1.1,1.1,0,0,0,14,46.51c.34.76.77,1.49,1.16,2.23a2,2,0,0,0,1.56,1.08,1.29,1.29,0,0,1,.81.57,6,6,0,0,0,2.2,2.31,13.13,13.13,0,0,1,4.64,5,1.91,1.91,0,0,0,.5.63,4.83,4.83,0,0,0,3.46,1.26c.56-.06,1.13-.11,1.69-.2,3.4-.54,5.9-2.24,7.14-5.56.16-.43.26-.88.41-1.41l-1.45.22c0-.23.09-.32.17-.34a6.1,6.1,0,0,0,3.59-3.2,1,1,0,0,1,.71-.42A1.78,1.78,0,0,0,42,47.9,13.67,13.67,0,0,0,43,46.08c.13-.29.27-.68-.2-.82s-.56.17-.65.53a2.13,2.13,0,0,1-1,1.49c.07-.26.09-.38.13-.48.47-1.09.2-1.57-1-1.79a5.88,5.88,0,0,1-1.38-.38c-2.48-1.17-4.83-2.53-6.4-4.9a1.61,1.61,0,0,0-.32-.25c-1.86,2.54-3,3.34-4.58,3.05Zm13,9.4a11.7,11.7,0,0,0-.14,5.73,9,9,0,0,1-1.9-5.93c-.57.61-1,1.08-1.45,1.57a2.22,2.22,0,0,0-.33.63c-.34.87-.69,1.73-1,2.6a1.66,1.66,0,0,0-.14.94c.27.95.61,1.88.94,2.81.19.53.52.68,1.06.43,1.22-.56,2.46-1.1,3.69-1.64s2.46-1.09,3.71-1.58a1,1,0,0,0,.8-1.13,8.1,8.1,0,0,1,1.16-4.46,3.46,3.46,0,0,0,.38-1.19c.26-1.57.44-3.15.73-4.71a21.74,21.74,0,0,1,2-6.33,24.71,24.71,0,0,0,1.14-2.64c.77-2,.54-2.52-1.4-3.34-.25-.1-.48-.25-.72-.37l.1-.29,2.06.33c0-.38.19-.79,0-1a1.72,1.72,0,0,1,0-1.85c-.43-.44-.82-.86-1.21-1.27a1,1,0,0,0-1.21-.25q-2.67,1.05-5.37,2.05c-.52.2-1,.38-.94,1.1a1.18,1.18,0,0,1-.34.72,1.38,1.38,0,0,0,0,2,1.61,1.61,0,0,1,.21,1.9,3.85,3.85,0,0,0-.19,3.14,11.36,11.36,0,0,1,.52,2.27.74.74,0,0,0,.65.63,6,6,0,0,1,3.32,2.33,3.05,3.05,0,0,1,.28.5l-.08.18A7.84,7.84,0,0,0,44,43.48a31.38,31.38,0,0,1,2.48,2.83,5.44,5.44,0,0,1,.85,3.57,6.54,6.54,0,0,0-3.11-3.72c-.88,2.64-.49,5.22-.42,7.81C42.6,53,42.56,51.68,42.28,50.38ZM6,47.57l.19.13a2.94,2.94,0,0,1-.12.67,1.56,1.56,0,0,0,.41,2c.62.54,1.32,1,2,1.49C10.28,53.26,12.14,54.61,14,56a1.72,1.72,0,0,1,.73,1,7.86,7.86,0,0,0,.45,2.13,1.27,1.27,0,0,0,1.07,1c.85.21,1.69.43,2.51.7s1,.35,1.58-.49c0-.05.07-.11.12-.13.9-.46.84-1.21.62-2a1.74,1.74,0,0,1,.1-1.39c.73-1.33.68-1.5-.47-2.49A6.16,6.16,0,0,0,20,53.8c-.91-.59-1-.55-1.61.38A5.55,5.55,0,0,1,16.64,56a10,10,0,0,1,0-1.46c0-1,.09-2,0-3a1.44,1.44,0,0,0-.45-1c-.78-.56-1.65-1-2.62-1.57l.42,1.23a.64.64,0,0,1-.19.07.35.35,0,0,1-.17,0,4.09,4.09,0,0,1-2.09-2.48,32,32,0,0,1-.45-3.92,4.87,4.87,0,0,1,0-.54L11,43.2l-2.26,4-.23-.06a11.27,11.27,0,0,1,.29-2.34,34.57,34.57,0,0,1,2.79-6.61,1.88,1.88,0,0,0,.18-1.1c-.18-1.22-.43-2.42-.64-3.63a.92.92,0,0,0-.86-.86C8.6,32.32,7,32,5.35,31.77a8.77,8.77,0,0,0-1.53-.12c-.18,0-.51.18-.53.31A3.21,3.21,0,0,0,3.2,33.6a6.06,6.06,0,0,1,.48,2.71c0,.81.07,1.62.08,2.43,0,2.8.67,5.61,0,8.41a.87.87,0,0,0,.54,1A.9.9,0,0,0,5.44,48C5.6,47.85,5.78,47.72,6,47.57ZM39.88,7l-.19.15a.85.85,0,0,1-.24-.09c-1.9-1.46-3.79-2.94-5.7-4.39a7.49,7.49,0,0,0-1.29-.8.7.7,0,0,0-.64,0,.89.89,0,0,0-.06.73,3.14,3.14,0,0,0,.61.76C34.1,5.26,35.84,7.13,37.56,9a4.94,4.94,0,0,1,.49.76l-.17.15a9.1,9.1,0,0,1-.94-.46c-1.54-.94-3.06-1.9-4.59-2.83a14.16,14.16,0,0,0-1.58-.85.59.59,0,0,0-.54.11.65.65,0,0,0,.05.57,3,3,0,0,0,.52.48c1.64,1.54,3.32,3,4.89,4.63.77.77.8.87,1.82.42a2,2,0,0,1,1.66-.2c-.65.43-1.19.82-1.76,1.14a1.23,1.23,0,0,1-.76.18,16.14,16.14,0,0,0-5,.27,1.45,1.45,0,0,0-.6.17.83.83,0,0,0-.39.53.69.69,0,0,0,.4.49,5.75,5.75,0,0,0,1.23.27,7.55,7.55,0,0,1,3.92,1.65,8,8,0,0,0,4,1.8,1.63,1.63,0,0,1,1.35,1.06c.08.21.25.49.43.53.58.14.7.61.87,1.05s.4,1.13.58,1.7.44.72,1,.54c1.23-.4,2.47-.76,3.71-1.12.49-.15.59-.42.4-.88C48,19.78,47.46,18.39,46.92,17a1.93,1.93,0,0,1-.19-1.1,9.85,9.85,0,0,0,0-5.33,17.86,17.86,0,0,0-1.63-4.65c-.83-1.53-1.69-3-2.56-4.55a2,2,0,0,0-.64-.61c-.15-.1-.47-.16-.56-.08a.77.77,0,0,0-.19.63,8.74,8.74,0,0,0,.44,1.17c.44,1.15.9,2.29,1.31,3.44a4.63,4.63,0,0,1,.11,1l-2-.48c.77-.52.25-.94-.15-1.36a5.6,5.6,0,0,0-1-.89C37.86,3,35.9,1.85,33.94.7c-.11-.06-.23-.15-.33-.13a7.16,7.16,0,0,0-.8.19,2,2,0,0,0,.25.71,2.58,2.58,0,0,0,.73.51,31,31,0,0,1,5.52,4.29A6.68,6.68,0,0,1,39.88,7Zm-27,38.09a2.9,2.9,0,0,0,.34-.4A3.22,3.22,0,0,1,15.82,43c.59-.11,1.19-.14,1.79-.2,2.11-.21,4.24-.33,6.34-.67A11.89,11.89,0,0,0,31.05,38a7.09,7.09,0,0,0,1.12-2.21A1.87,1.87,0,0,0,31.8,34a5.94,5.94,0,0,0-4.27-2.56A13.88,13.88,0,0,0,18.93,33a19.83,19.83,0,0,0-7.73,8.07,1.38,1.38,0,0,0-.06.49,2.53,2.53,0,0,0,.48-.25,11.51,11.51,0,0,1,5.59-2.05c1.15-.17,2.33-.21,3.48-.42,2.57-.47,5.13-1,7.18-2.82a1.77,1.77,0,0,1,.49-.2,2.26,2.26,0,0,1-1.3,2.33,20.5,20.5,0,0,1-6.44,2.46c-1.64.38-3.29.7-4.9,1.17a6.06,6.06,0,0,0-2,1.09A2,2,0,0,0,12.9,45.08ZM4.48,25.29a7.5,7.5,0,0,0,.71.27l3.23.81c1.67.43,1.28.32,1.76-1,.25-.7.48-1.41.74-2.11a8.42,8.42,0,0,0,.51-1.21A1.44,1.44,0,0,1,12.16,21a7.38,7.38,0,0,0,3.16-3.33,20.22,20.22,0,0,1,4-5.65,2.33,2.33,0,0,0,.42-.57.86.86,0,0,0-.08-1.08c-.36-.35-.69-.16-1.06,0-1.13.61-2.29,1.18-3.42,1.78a3.62,3.62,0,0,0-1.12.73,2.75,2.75,0,0,1-1.62.88,2.22,2.22,0,0,0-.67.23c-2.42,1.5-4.83,3-7.25,4.53a.69.69,0,0,0-.29,1c.34.67.62,1.37,1,2a1.31,1.31,0,0,1,0,1.48A13.24,13.24,0,0,0,4.48,25.29Zm27.77,8.48a3.27,3.27,0,0,0,.45-2.31,7.06,7.06,0,0,0-7-5.84,11.13,11.13,0,0,0-5.26,1.67,15.13,15.13,0,0,0-3.91,3.53c-.16.21-.38.38-.56.58a12.44,12.44,0,0,0-2.8,4.24,3,3,0,0,0-.06.61,1.37,1.37,0,0,0,.69-.4,15.54,15.54,0,0,1,6-4.23,23.36,23.36,0,0,1,4.54-1,7.78,7.78,0,0,1,7.32,2.5C31.77,33.32,32,33.53,32.25,33.77ZM3.49,17.64a43,43,0,0,0,7.4-4.29L8.52,11.74,8,12.48c-.35-.65-.25-1.05.4-1.77a7.89,7.89,0,0,0,.87.76,23.64,23.64,0,0,0,2.18,1.39.87.87,0,0,0,1.2-.29c.26-.41-.1-.73-.38-1A25.49,25.49,0,0,1,8.72,7.76C8.18,7,7.63,7,7.16,7.76c-.83,1.32-1.64,2.65-2.47,4a1.28,1.28,0,0,0-.08,1.36c.15.32.26.67.38,1-1.63-2-2.38-4.59-4.12-6.66C.4,8.64,2.43,16.26,3.49,17.64Zm36.88,7.72c0,.25,0,.35,0,.42.6,1.1,1.22,2.2,1.82,3.3.25.45.58.42,1,.28q4.71-1.65,9.42-3.26a.92.92,0,0,0,.72-.9c.06-1,.18-2,.25-3.05a2.88,2.88,0,0,0-.14-.64Zm-28,6.49c.3.07.53-.14.65-.55.2-.69.44-1.37.64-2.07s.17-.75-.52-.95c-1.15-.32-2.32-.6-3.48-.91-2.43-.64-4.86-1.29-7.3-1.92-.74-.19-.85-.12-.94.62-.13,1.16-.23,2.33-.38,3.49-.07.55.17.77.68.83q1.38.16,2.76.36Zm29.49,4.58a2.14,2.14,0,0,0-1-1.75c-.46-.32-1-.6-1.44-.9a7.7,7.7,0,0,0-5-1.21c-.33,0-.72,0-.77.45-.16,1.31-.37,2.66.86,3.64,1,.82,2.05,1.65,3.11,2.42a11.41,11.41,0,0,0,5.23,2c.7.1.84,0,.71-.69a5.73,5.73,0,0,0-2.83-4c-.51-.3-1.08-.55-1.32-1.23ZM26.88,60.06a18.46,18.46,0,0,1-2.42-1.6,20.74,20.74,0,0,1-1.86-2.35c-.3,1-.85,1.71-.62,2.54a1.36,1.36,0,0,1-.45,1.51,1.17,1.17,0,0,0-.47,1.1c.13.67.18,1.35.35,2a1.2,1.2,0,0,0,.59.68c.16.08.48-.07.69-.2.73-.46,1.41-1,2.16-1.41,1-.51,2-.92,3.11-1.42-1.34-.54-2.64.19-3.89-.27ZM45.22,42.43l.05-.26c-.42-.11-.83-.27-1.25-.34-.89-.15-1.78-.28-2.67-.38a7.46,7.46,0,0,1-4.59-2c-1.25-1.2-2.54-2.35-3.81-3.52a2.62,2.62,0,0,0-.37,2.46A3.92,3.92,0,0,0,34,40.27a9.62,9.62,0,0,0,7.09,2.2,27.05,27.05,0,0,1,3.49,0ZM33.51,62.63a4.92,4.92,0,0,0-3.35-1.11c-.27,0-.54,0-.81,0a3.37,3.37,0,0,0-1,.1c-.9.32-1.79.69-2.67,1a3.06,3.06,0,0,0-.56.35c1.63.77,3.14,1.52,4.69,2.2a1.08,1.08,0,0,0,.87-.22c.54-.38,1-.85,1.51-1.27S33.07,63,33.51,62.63ZM41,33.89l.18-.18-1.64-2.32c-1.14-1.61-2.85-2.11-4.65-2.37-1.25-.18-1.51.14-1.41,1.41.13,1.59.14,1.65,1.77,1.58a8.54,8.54,0,0,1,5.08,1.47ZM31.64,60.43c-.14.64.3.68.6.79,1.17.45,2.37.85,3.52,1.34.45.19.81.33,1.23,0a1.15,1.15,0,0,0,.41-1.2c0-.35-.17-.78,0-1a1.72,1.72,0,0,0-.07-1.78c-.3-.56-.32-1.27-.94-1.78a8.9,8.9,0,0,1-3.55,3.17,1.92,1.92,0,0,0,.71.24c.72.17,1.46.32,2.17.51.35.1.66.29.54.81A33.63,33.63,0,0,0,31.64,60.43ZM9.67,7.71l.74,1.08a.83.83,0,0,0,1.28.3,19.79,19.79,0,0,0,4.24-3.44c.17-.16.12-.55.2-1ZM34.39,67.93c0-.87-.25-1.26-.92-1.24a2.09,2.09,0,0,0-1.26.5,3.64,3.64,0,0,0-1,2.17c-.07.43-.16.86.25,1.15a1.11,1.11,0,0,0,1.34-.06A3.47,3.47,0,0,0,34.39,67.93ZM13.45,12.34c.37-.4.92-.75.88-1a7.73,7.73,0,0,0-1-2.78L11.4,10Zm-.77,30a2.27,2.27,0,0,0,.34-.15,8.93,8.93,0,0,1,3.91-1.51c1.42-.24,2.83-.52,4.24-.79a12,12,0,0,0,1.17-.34c-.11-.15-.2-.18-.28-.17-2,.26-3.92.54-5.88.79A9.42,9.42,0,0,0,13,41.38.64.64,0,0,0,12.68,42.3ZM27,68.68a3.44,3.44,0,0,0,1.94-1.09.92.92,0,0,0,.12-.86,1.51,1.51,0,0,0-.94-.26c-.17,0-.37.19-.5.34A3,3,0,0,0,27,68.68ZM42.89,44c-1.37-1.13-2.9-.17-4.34-.41A6,6,0,0,0,42.89,44ZM41.1,51.75a4.21,4.21,0,0,0,.36-2.34C40.63,49.83,40.57,50.17,41.1,51.75Zm-12.16,8.5v.24a2.13,2.13,0,0,0,1.94.3.5.5,0,0,0,.17-.37c0-.07-.14-.22-.22-.22C30.19,60.2,29.56,60.23,28.94,60.25ZM26.19,64.6l.06-.23c-1.15-.91-1.87-1.07-2.51-.41ZM17.25,54.05c1-1,1-1.36.17-1.73Z" style="fill:#82ccdf"/><path d="M21.28,69.1c.54-.66,1.08-1.32,1.63-2a6.46,6.46,0,0,1,.81-.84c.48-.36.91-.17.89.43a13.92,13.92,0,0,1-.26,2.13,2.25,2.25,0,0,0,.17,1.65.56.56,0,0,1-.35.91.61.61,0,0,1-.88-.59c-.05-.59,0-1.19,0-1.79a7,7,0,0,0-.13-.89c-.62.73-1.1,1.32-1.6,1.88a6.56,6.56,0,0,1-1,.92c-.51.36-.86.18-.92-.44,0-.43,0-.87,0-1.48a5.32,5.32,0,0,0-.57.53c-.5.64-1,1.3-1.46,1.94a1.39,1.39,0,0,1-.43.44.59.59,0,0,1-.48-.06c-.08-.05-.09-.27-.06-.4a1.09,1.09,0,0,1,.22-.39c.95-1.38,1.89-2.76,2.88-4.11.24-.34.71-.81,1-.75.53.11.32.74.32,1.16S21,68.46,21,69Z" style="fill:#82ccdf"/><path d="M47,68.65c-.16.73-.28,1.23-.39,1.73,0,.21,0,.47-.13.6a1.14,1.14,0,0,1-.71.41c-.39,0-.38-.41-.3-.71.34-1.39.68-2.79,1.06-4.17.13-.49.38-.87,1-.74.22,0,.5-.14.73-.25A1.13,1.13,0,0,1,50,66.59a1.9,1.9,0,0,1-.77,1.65c-.5.37-.47.73-.1,1.11s1,.86,1.45,1.3c.14.13.36.34.32.45s-.28.47-.43.47a2,2,0,0,1-1.08-.28A15.12,15.12,0,0,1,48,69.89C47.72,69.54,47.43,69.19,47,68.65Zm.12-.12a2.7,2.7,0,0,0,1.62-1.11c.15-.23.09-.59.12-.88-.33,0-.73-.12-1,0C47.16,67,47.09,67.68,47.08,68.53Z" style="fill:#82ccdf"/><path d="M12.58,69.68a4.67,4.67,0,0,1,1.25-3,2.48,2.48,0,0,1,2-1,1,1,0,0,0,.35,0c.3-.11.62-.4.89,0a2.89,2.89,0,0,1,.64,1.24,4.88,4.88,0,0,1-3.59,4.69C13.05,71.77,12.54,71.27,12.58,69.68Zm4.12-1.81c0-.91-.53-1.41-1.32-1.19a1.66,1.66,0,0,0-.94.6,12.15,12.15,0,0,0-.89,2,.94.94,0,0,0,.23,1.22,1.19,1.19,0,0,0,1.42-.12A3.62,3.62,0,0,0,16.7,67.87Z" style="fill:#82ccdf"/><path d="M42.07,68.19h2.06c0,.64-.42.8-.87.88s-.72,0-1.07.1-.76.24-.57.88h1.56a2.38,2.38,0,0,1,.71.06.51.51,0,0,1,.3.37c0,.13-.16.38-.27.4-1.2.18-2.41.32-3.75.5.06-.43.08-.74.15-1,.18-.69.4-1.38.59-2.07A2.8,2.8,0,0,1,43.82,66a5.41,5.41,0,0,1,.9,0,1.74,1.74,0,0,1,.86.31,2.74,2.74,0,0,1-.72.44,10.88,10.88,0,0,1-1.6.18C42.26,67,42.24,67,42.07,68.19Z" style="fill:#82ccdf"/><path d="M11.8,66.07c-.09.37-.24.59-.73.56a2.6,2.6,0,0,0-2.69,2.84c0,.47.27.66.7.55s.9-.32,1.36-.48l.93-.29a.69.69,0,0,1-.37,1c-.9.38-1.82.75-2.75,1.06-.47.16-.81-.12-1-.57a2.16,2.16,0,0,1-.1-.44,5.18,5.18,0,0,1,2.95-4.57A1.64,1.64,0,0,1,11.8,66.07Z" style="fill:#82ccdf"/><path d="M39.81,67.08c-.4-.15-.67-.23-.94-.34a.92.92,0,0,0-1.14.24c-.31.36,0,.67.18,1,.38.53.8,1,1.17,1.59A1.21,1.21,0,0,1,39.24,71a1.11,1.11,0,0,1-1.36.4A14,14,0,0,1,36,70.6a1.17,1.17,0,0,1-.55-.57.81.81,0,0,1,.07-.7c.22-.24.43,0,.66.17a5.65,5.65,0,0,0,1.26,1c.2.11.54,0,.82,0a2.18,2.18,0,0,0-.14-.79c-.37-.61-.86-1.15-1.21-1.77a1.22,1.22,0,0,1,.62-1.79,1.86,1.86,0,0,1,2.22.32C39.83,66.53,39.78,66.76,39.81,67.08Z" style="fill:#82ccdf"/><path d="M30.79,49.6l-1.44,2a1.06,1.06,0,0,1-1.75.24c-.25-.2-.46-.48-.71-.68a8.05,8.05,0,0,0-.78-.48c0-.06,0-.17.05-.22,1.11-1,.78-2.23.39-3.41a1.38,1.38,0,0,0-1.2-.95,18.24,18.24,0,0,0-6.08-.39,1.48,1.48,0,0,1,1.54-1.09,30.68,30.68,0,0,1,3.83.39c1.3.25,2.31.06,2.94-1.2.05-.08.16-.13.33-.27A2.66,2.66,0,0,1,26.79,46a8.3,8.3,0,0,1,.66,1.69,5.55,5.55,0,0,1,0,2.11c-.16.69.26.93.64,1.23s.69-.07,1-.33.52-.58.81-.84A.73.73,0,0,1,30.79,49.6Z" style="fill:#82ccdf"/><path d="M37.29,45.44a6.71,6.71,0,0,1-4.66.84A1.22,1.22,0,0,0,34,47.44a5.14,5.14,0,0,0,3-.53,3.69,3.69,0,0,1,.48-.2c-1.27,1.51-1.69,1.91-3.54,1.2-.33-.13-.69-.18-1-.29a1.26,1.26,0,0,1-1-.89,1.19,1.19,0,0,0-.67-.61c-1.32-.56-1.73-1.19-1.61-2.79.16.26.31.4.34.56.18.91.78,1.24,1.65,1.38a17.28,17.28,0,0,0,5.37.15A1.17,1.17,0,0,1,37.29,45.44Z" style="fill:#82ccdf"/><path d="M24.17,53.35a4.73,4.73,0,0,1,3.09-.83c.25.09.46.28.72.35a2.08,2.08,0,0,0,.86.07c.89-.19,1.78-.44,2.68-.62.13,0,.31.18.46.28-.13.12-.3.38-.39.35a3.89,3.89,0,0,0-2.5.52,1.52,1.52,0,0,1-1.46-.08,1.66,1.66,0,0,0-1.78-.06A1.47,1.47,0,0,1,24.17,53.35Z" style="fill:#82ccdf"/><path d="M31,55.09A4.48,4.48,0,0,0,27.88,55,2.59,2.59,0,0,0,26,57.34a1.62,1.62,0,0,1,.35-2.44,5.44,5.44,0,0,1,3.54-.64A1.47,1.47,0,0,1,31,55.09Z" style="fill:#82ccdf"/><path d="M19.71,47.31a1.37,1.37,0,0,1,1.38-.46,10.21,10.21,0,0,0,3.4,0,1.78,1.78,0,0,1,1,.21c-.87.32-1.74.66-2.63.94A1.23,1.23,0,0,1,22,48,3.42,3.42,0,0,0,19.71,47.31Z" style="fill:#82ccdf"/><path d="M15.08,45.69l1.42,2.47C14.86,47.1,14.65,46.76,15.08,45.69Z" style="fill:#82ccdf"/><path d="M52.45,22.91c.1.14.34.32.4.55s-.31.85-.65.77a1,1,0,0,1-.58-.54C51.49,23.35,51.9,23,52.45,22.91Z" style="fill:#82ccdf"/><path d="M2.48,28.17c0-.6.31-.94.82-1s.93.42.92,1.08a1,1,0,0,1-.91,1C2.8,29.32,2.46,28.85,2.48,28.17Z" style="fill:#82ccdf"/></g></g></svg>