<svg version="1.1" xmlns="http://www.w3.org/2000/svg" xmlns:xlink="http://www.w3.org/1999/xlink" x="0px" y="0px" width="45.59px"
	 height="60.74px" viewBox="0 0 45.59 60.74" style="overflow:visible;enable-background:new 0 0 45.59 60.74;"
	 xml:space="preserve">
<style type="text/css">
	.st0{fill:#82CCDF;}
</style>
<defs>
</defs>
<g class="st0">
	<path  d="M7.95,48.85v-9.93c0-5.21-2.25-7.32-7.95-7.32v-2.54c5.7,0,7.95-2.11,7.95-7.32v-9.86
		C7.95,4.44,11.68,1.06,21.05,0l0.28,2.46c-7.81,0.85-10.91,3.66-10.91,9.72l0.07,10.13c0,4.72-1.41,7.04-4.93,8.03
		c3.52,1.05,4.93,3.38,4.93,8.09l-0.07,10.06c0,6.12,3.1,8.94,10.91,9.78l-0.28,2.46C11.68,59.69,7.95,56.3,7.95,48.85z"/>
	<path d="M24.27,58.28c7.81-0.84,10.91-3.66,10.91-9.78l-0.07-10.06c0-4.72,1.41-7.04,4.93-8.09
		c-3.52-0.99-4.93-3.31-4.93-8.03l0.07-10.13c0-6.05-3.1-8.87-10.91-9.72L24.55,0c9.36,1.06,13.09,4.44,13.09,11.89v9.86
		c0,5.21,2.25,7.32,7.95,7.32v2.54c-5.7,0-7.95,2.11-7.95,7.32v9.93c0,7.46-3.73,10.84-13.09,11.89L24.27,58.28z"/>
</g>
</svg>
