<svg xmlns="http://www.w3.org/2000/svg" viewBox="0 0 380.8 91.09"><g id="Camada_2" data-name="Camada 2"><g id="Camada_1-2" data-name="Camada 1"><path d="M75.11,29.58H61.47V16a16,16,0,1,0-31.92,0v13.6H15.94a16,16,0,0,0,0,32H29.55v13.6a16,16,0,0,0,31.92,0V61.54H75.11a16,16,0,0,0,0-32ZM32.25,16A13.31,13.31,0,0,1,45.53,2.7,13.33,13.33,0,0,1,58.77,16V31a11.77,11.77,0,0,1-.25,2.52,4.48,4.48,0,0,1-.22.93,10,10,0,0,1-1,2.52,9.69,9.69,0,0,1-.58,1A12,12,0,0,1,56,39.08l-.69.8a11.62,11.62,0,0,1-.86.86c-.29.25-.58.5-.9.75a12.71,12.71,0,0,1-4.1,2.13,7.5,7.5,0,0,1-1.26.32,8.52,8.52,0,0,1-1.37.22c0-.36-.07-.76-.14-1.12a15.66,15.66,0,0,0-.36-1.73,7.37,7.37,0,0,0-.43-1.25s0,0,0-.08l-.44-1a14.64,14.64,0,0,0-1.51-2.59c-.25-.36-.54-.72-.83-1.08a12.64,12.64,0,0,0-.93-1,14.74,14.74,0,0,0-2.59-2.09,5.8,5.8,0,0,0-1.08-.64,11.78,11.78,0,0,0-1.23-.62,2,2,0,0,0-.39-.14,4,4,0,0,0-.83-.32,8.92,8.92,0,0,0-1-.29,10.49,10.49,0,0,0-1.4-.33c-.47-.07-.94-.14-1.44-.18ZM2.7,45.56A13.07,13.07,0,0,1,6.59,36.2a13.12,13.12,0,0,1,9.35-3.92h15a13,13,0,0,1,6,1.48,5.58,5.58,0,0,1,1,.57,5.64,5.64,0,0,1,1,.69,12.54,12.54,0,0,1,2.52,2.52,6.08,6.08,0,0,1,.68,1,6,6,0,0,1,.58,1,10.33,10.33,0,0,1,.86,2.09,7.28,7.28,0,0,1,.33,1.26,8.52,8.52,0,0,1,.21,1.37.51.51,0,0,0-.21,0c-.54.07-1.08.15-1.62.25s-1,.26-1.52.4a10.9,10.9,0,0,0-1.47.54A13.7,13.7,0,0,0,36.6,47a13.61,13.61,0,0,0-1.22.89,15.57,15.57,0,0,0-3.24,3.64,8.84,8.84,0,0,0-.65,1.08,12.62,12.62,0,0,0-.61,1.22c0,.15-.11.29-.15.4a4,4,0,0,0-.32.83,8.3,8.3,0,0,0-.29,1,10.09,10.09,0,0,0-.32,1.4c-.07.47-.15.94-.18,1.44H15.94A13.28,13.28,0,0,1,2.7,45.56ZM58.77,75.14a13.26,13.26,0,0,1-26.52,0v-15a12.61,12.61,0,0,1,1.47-6,6,6,0,0,1,.58-1,6.53,6.53,0,0,1,.68-1,12.8,12.8,0,0,1,2.52-2.52,10.54,10.54,0,0,1,1-.69,9.8,9.8,0,0,1,1-.57,10.62,10.62,0,0,1,2.08-.87,7.5,7.5,0,0,1,1.26-.32A7.54,7.54,0,0,1,44.23,47a.39.39,0,0,0,0,.21c.07.54.14,1.08.25,1.62s.25,1,.39,1.51a14.69,14.69,0,0,0,.54,1.48,14.87,14.87,0,0,0,1.48,2.7c.29.43.57.82.9,1.22A15.52,15.52,0,0,0,51.46,59a8.84,8.84,0,0,0,1.08.65c.4.21.79.43,1.23.61s.79.32,1.22.47.65.21,1,.28.87.22,1.3.33a.51.51,0,0,1,.21,0c.44,0,.87.11,1.3.15ZM84.5,54.92a13.24,13.24,0,0,1-9.39,3.92h-15a13.06,13.06,0,0,1-8-2.73c-.29-.22-.61-.51-.9-.76a11.62,11.62,0,0,1-.86-.86c-.22-.26-.47-.51-.69-.8a7.82,7.82,0,0,1-.75-1.15,3.91,3.91,0,0,1-.54-.9s0-.07-.07-.1a15.19,15.19,0,0,1-1.16-3.32.25.25,0,0,0,0-.14c0-.4-.11-.79-.15-1.22a.28.28,0,0,0,.18,0c.54-.07,1.08-.14,1.62-.25s1-.25,1.52-.4a10.9,10.9,0,0,0,1.47-.54,13.65,13.65,0,0,0,2.7-1.47c.4-.29.83-.58,1.22-.9a10,10,0,0,0,1.12-1c.32-.32.65-.64,1-1,0,0,0-.08.07-.11.33-.4.62-.83.9-1.22a14.87,14.87,0,0,0,1.48-2.7,15.64,15.64,0,0,0,.54-1.48c.14-.5.29-1,.39-1.51s.18-1.08.26-1.62a1,1,0,0,0,0-.29H75.11A13.29,13.29,0,0,1,84.5,54.92Z" style="fill:#5a8d96"/><path d="M101.78,29h6.88l10,18.16L128.55,29h6.92V61.18h-6.92v-20l-9.92,18.16-10-18.16v20h-6.88Z" style="fill:#283351"/><path d="M144.26,35.26v6.41h16.15v6.22H144.26V55h17.83v6.23H137.34V29h24.75v6.23Z" style="fill:#283351"/><path d="M179.07,43.12H193.3V56.36a18.45,18.45,0,0,1-13,5.38c-9.31,0-17.22-7.63-17.22-16.66S171,28.47,180.29,28.47a18.45,18.45,0,0,1,13,5.38l-5,4.49a11.06,11.06,0,0,0-8-3.6,10.37,10.37,0,0,0,0,20.73,10.91,10.91,0,0,0,6.27-2.06V48.5h-7.49Z" style="fill:#283351"/><path d="M218.51,56.12H204.19l-2.05,5.06h-7.72L207.52,29h7.71l13.11,32.15h-7.77Zm-2.39-5.85-4.77-11.74-4.77,11.74Z" style="fill:#283351"/><path d="M228.56,29h10.3c5,0,8.76,4.12,8.76,10s-3.71,10-8.76,10h-8.5V61.18h-1.8Zm9.94,17.69c4.29,0,7.28-3.09,7.28-7.72s-3-7.67-7.28-7.67h-8.14V46.72Z" style="fill:#5a8d96"/><path d="M271.54,29V61.18h-2.31V46.25H254.14V61.18h-2.31V29h2.31V43.35h15.09V29Z" style="fill:#5a8d96"/><path d="M295,53.6h-14.2l-2.55,7.58h-2.52L286.63,29h2.52l10.92,32.15h-2.53Zm-1-2.9-6.09-18-6.09,18Z" style="fill:#5a8d96"/><path d="M316.28,49.11l6.56,12.07h-2.67l-6.44-11.89h-7.17V61.18h-2.31V29h10.16c5.08,0,8.93,4.22,8.93,10.16C323.34,44.38,320.42,48.22,316.28,49.11Zm-9.72-2.67H314c4.14,0,7-2.81,7-7.25s-2.89-7.3-7-7.3h-7.45Z" style="fill:#5a8d96"/><path d="M328.24,29h2.31l9.43,23,9.44-23h2.3V61.18h-2.3V35.4l-9.44,23-9.43-23V61.18h-2.31Z" style="fill:#5a8d96"/><path d="M375.72,53.6H361.53L359,61.18h-2.52L367.36,29h2.52L380.8,61.18h-2.52Zm-1-2.9-6.09-18-6.09,18Z" style="fill:#5a8d96"/><path d="M153.89,71.69h4.19c3.86,0,6.57,2.56,6.57,6.18s-2.71,6.19-6.57,6.19h-4.19ZM158.08,83a5.13,5.13,0,1,0,0-10.25h-3V83Z" style="fill:#283351"/><path d="M182.41,79.42l3.28,4.64h-1.33l-3.23-4.57h-3.58v4.57H176.4V71.69h5.07c2.55,0,4.47,1.62,4.47,3.91A3.91,3.91,0,0,1,182.41,79.42Zm-4.86-1h3.73c2.07,0,3.51-1.08,3.51-2.79s-1.44-2.81-3.51-2.81h-3.73Z" style="fill:#283351"/><path d="M196.71,77.87a6.33,6.33,0,1,1,6.34,6.41A6.46,6.46,0,0,1,196.71,77.87Zm11.49,0a5.16,5.16,0,1,0-5.15,5.33A5.3,5.3,0,0,0,208.2,77.87Z" style="fill:#283351"/><path d="M226.59,77.67h4.95v4.74a7.21,7.21,0,0,1-4.79,1.87,6.41,6.41,0,0,1,0-12.81,7.07,7.07,0,0,1,4.79,1.88l-.79.81a5.83,5.83,0,0,0-4-1.61,5.33,5.33,0,0,0,0,10.65,6,6,0,0,0,3.64-1.26V78.77h-3.8Z" style="fill:#283351"/><path d="M252.25,81.15h-7.1l-1.28,2.91h-1.26l5.46-12.37h1.26l5.46,12.37h-1.26ZM251.74,80l-3-6.92-3,6.92Z" style="fill:#283351"/><path d="M272,79.42l3.27,4.64h-1.33l-3.22-4.57h-3.58v4.57H266V71.69H271c2.54,0,4.47,1.62,4.47,3.91A3.91,3.91,0,0,1,272,79.42Zm-4.86-1h3.72c2.07,0,3.52-1.08,3.52-2.79s-1.45-2.81-3.52-2.81h-3.72Z" style="fill:#283351"/><path d="M286.75,71.69h1.16V84.06h-1.16Z" style="fill:#283351"/><path d="M308.71,81.15h-7.09l-1.28,2.91h-1.26l5.45-12.37h1.27l5.45,12.37H310Zm-.5-1.12-3-6.92-3,6.92Z" style="fill:#283351"/><path d="M321.82,82.3l.72-.9a5.84,5.84,0,0,0,4.2,1.8c2,0,3.1-1.08,3.1-2.34s-1.14-2-3.48-2.51c-2.61-.61-4.05-1.42-4.05-3.36s1.73-3.54,4.09-3.54a6.31,6.31,0,0,1,4.32,1.77l-.72.9a5.28,5.28,0,0,0-3.66-1.6,2.59,2.59,0,0,0-2.86,2.38c0,1.24,1.17,1.78,3.46,2.34,2.54.59,4.07,1.49,4.07,3.51s-1.57,3.51-4.31,3.51A6.84,6.84,0,0,1,321.82,82.3Z" style="fill:#283351"/></g></g></svg>