<svg xmlns="http://www.w3.org/2000/svg" viewBox="0 0 54.32 73.24"><g id="Camada_2" data-name="Camada 2"><g id="Camada_1-2" data-name="Camada 1"><path d="M26.65,39.47c-1.53-1.55-3.16-3-4.59-4.67A33.18,33.18,0,0,1,18.55,30a6.28,6.28,0,0,1,.55-7.85,67.53,67.53,0,0,1,5.82-5.52c2-1.76,4.11-3.32,6-5.15,3-2.92,4.53-6.45,3.82-10.73a1.32,1.32,0,0,1,.1-.79,7.32,7.32,0,0,1,1.71,5.38,12.82,12.82,0,0,1-2.33,6.38,36.83,36.83,0,0,1-7.12,7.37A31.06,31.06,0,0,0,23,23.36a7.23,7.23,0,0,0-.67,8.42c1.07,2,2.39,3.79,3.6,5.67L27,39.19Z" style="fill:#ea6572"/><path d="M43.05,15l-1.26.81a40.07,40.07,0,0,0-8.24,6.12c-2.42,2.54-2.63,4.77-.68,7.7.53.8,1.14,1.56,1.66,2.37a5.35,5.35,0,0,1-.22,6.73,13.33,13.33,0,0,1-3.63,3.23l-.23-.21.58-1A4.77,4.77,0,0,0,30.81,35c-.63-.85-1.31-1.66-1.87-2.55-2.53-4-2.11-7.86,1.3-11.09s7.82-5.15,12.36-6.53C42.67,14.79,42.76,14.86,43.05,15Z" style="fill:#ea6572"/><path d="M50.2,62.73c1.14.81,1.07,1.56.31,2.1a10.16,10.16,0,0,1-3.1,1.67,95.94,95.94,0,0,1-10.68,2.33A112.92,112.92,0,0,1,3.9,68a11.77,11.77,0,0,1-3-.88c-1.08-.49-1.14-1.22-.34-2.1a3.64,3.64,0,0,1,.7-.6,18.82,18.82,0,0,1,8.6-2.68,1.67,1.67,0,0,1,1.05.35c-.3.08-.6.13-.89.23-1.53.52-3.07,1-4.58,1.59a1.17,1.17,0,0,0-.64.88c0,.27.44.68.75.76a50.79,50.79,0,0,0,5.9,1.35,106.75,106.75,0,0,0,20.14.48c4.64-.29,9.26-.93,13.88-1.5A14.05,14.05,0,0,0,48.6,65,2.06,2.06,0,0,0,50.2,62.73Z" style="fill:#82ccdf"/><path d="M38.32,60.18c-1.2.39-2.38.82-3.6,1.14a31.41,31.41,0,0,1-16.66.22,12.08,12.08,0,0,1-3.21-1.46c-1.21-.77-1.16-1.69,0-2.48a16.88,16.88,0,0,1,1.71-.88c.07,1.68,1.32,1.65,2.35,1.81a34.24,34.24,0,0,0,13-.1C34.39,57.85,36.3,58.66,38.32,60.18Z" style="fill:#82ccdf"/><path d="M17.4,40.26c-1.5.55-3,1-4.51,1.66a7.58,7.58,0,0,0-1.57,1.24c.6.35,1.19,1,1.81,1a90.32,90.32,0,0,0,10.52.39c5.82-.32,11.62-1,17.44-1.55l.92-.07a11.8,11.8,0,0,1-5.73,2.28,85.87,85.87,0,0,1-26.63.46A12.31,12.31,0,0,1,7,44.92c-.39-.15-.92-.62-.92-.94A1.48,1.48,0,0,1,7,43c2.6-.92,5.21-1.81,7.85-2.62A14.34,14.34,0,0,1,17.36,40Z" style="fill:#82ccdf"/><path d="M14.8,48.66c-.09,1.77.15,2.25,1.67,2.39a83.26,83.26,0,0,0,9.72.49c3.32-.11,6.62-.73,9.94-1.07a3.19,3.19,0,0,1,1.58.37,23.52,23.52,0,0,1,2.16,1.39c-2.13.46-3.94.92-5.77,1.23a47.83,47.83,0,0,1-17.81.12,13.9,13.9,0,0,1-3.57-1.3c-1.19-.61-1.21-1.58-.13-2.37A20.26,20.26,0,0,1,14.8,48.66Z" style="fill:#82ccdf"/><path d="M54.32,67.05c-.68.68-1.24,1.63-2.06,2a32.29,32.29,0,0,1-6.87,2.53,92.43,92.43,0,0,1-32.25.49,18.84,18.84,0,0,1-2.29-.6c-.1,0-.18-.15-.46-.39,1.86.18,3.49.36,5.13.49A102,102,0,0,0,46.7,69.68a18.77,18.77,0,0,0,7.26-3Z" style="fill:#82ccdf"/><path d="M43.37,53.41a60.46,60.46,0,0,0,5.05-3.74,10.06,10.06,0,0,0,2.47-3.35,4.33,4.33,0,0,0-4.54-6.08l-1.46.15c2.12-1.63,5.66-1.31,7.74.52a4.87,4.87,0,0,1,.81,6.46c-1.59,2.55-4.08,3.93-6.74,5.06-1.08.45-2.21.77-3.32,1.16Z" style="fill:#82ccdf"/></g></g></svg>