<svg xmlns="http://www.w3.org/2000/svg" viewBox="0 0 87.11 38.72"><g id="Camada_2" data-name="Camada 2"><g id="Camada_1-2" data-name="Camada 1"><path d="M0,20.53v-2.4l24.78-12v2.4L2.56,19.33,24.78,30.11v2.4Z" style="fill:#82ccdf"/><path d="M42.39,18.68c6.37-.49,10.89-4,10.89-8.44A8.47,8.47,0,0,0,44.78,2,12.5,12.5,0,0,0,34.06,7.62L32.64,6.26C36,2.07,40.05,0,44.89,0A10.36,10.36,0,0,1,55.24,10.07c0,5-4.52,9.15-10.89,10.24v7.24h-2ZM41.74,37a1.63,1.63,0,0,1,1.68-1.58A1.61,1.61,0,0,1,45,37a1.64,1.64,0,0,1-1.58,1.69A1.66,1.66,0,0,1,41.74,37Z" style="fill:#ea6572"/><path d="M62.34,30.11,84.55,19.33,62.34,8.55V6.15l24.77,12v2.4l-24.77,12Z" style="fill:#82ccdf"/></g></g></svg>