<svg xmlns="http://www.w3.org/2000/svg" viewBox="0 0 53.36 63.02"><g id="Camada_2" data-name="Camada 2"><g id="Camada_1-2" data-name="Camada 1"><polygon points="53.37 31.51 22.04 12.84 36.52 0 53.37 31.51" style="fill:#82ccdf"/><polygon points="22.04 12.84 15.93 18.55 0 12.45 22.04 12.84" style="fill:#6a7076"/><polygon points="21.98 20.64 21.91 31.51 1.59 31.51 15.93 18.55 21.98 20.64" style="fill:#82ccdf"/><polygon points="53.37 31.51 21.91 31.51 21.98 20.64 53.37 31.51" style="fill:#82ccdf"/><polygon points="53.37 31.51 21.98 20.64 22.04 12.84 53.37 31.51" style="fill:#6a7076"/><polygon points="22.04 12.84 21.98 20.64 15.93 18.55 22.04 12.84" style="fill:#2f393f"/><polygon points="36.52 0 22.04 12.84 0 12.45 7.15 0 36.52 0" style="fill:#82ccdf"/><polygon points="53.37 31.51 22.04 50.18 36.52 63.02 53.37 31.51" style="fill:#82ccdf"/><polygon points="22.04 50.18 15.93 44.47 0 50.57 22.04 50.18" style="fill:#6a7076"/><polygon points="21.98 42.37 21.91 31.51 1.59 31.51 15.93 44.47 21.98 42.37" style="fill:#82ccdf"/><polygon points="53.37 31.51 21.91 31.51 21.98 42.37 53.37 31.51" style="fill:#82ccdf"/><polygon points="53.37 31.51 21.98 42.37 22.04 50.18 53.37 31.51" style="fill:#6a7076"/><polygon points="22.04 50.18 21.98 42.37 15.93 44.47 22.04 50.18" style="fill:#2f393f"/><polygon points="36.52 63.02 22.04 50.18 0 50.57 7.15 63.02 36.52 63.02" style="fill:#82ccdf"/></g></g></svg>