<svg xmlns="http://www.w3.org/2000/svg" viewBox="0 0 17.87 11.36"><g id="Camada_2" data-name="Camada 2"><g id="Camada_1-2" data-name="Camada 1"><path d="M0,0H5.56A5.36,5.36,0,0,1,6.62.1a2.82,2.82,0,0,1,2.2,3.64A1.87,1.87,0,0,1,7.51,5,2.71,2.71,0,0,1,9.28,8.33a3.2,3.2,0,0,1-3.52,2.79c-1.92,0-3.84,0-5.76,0ZM2.58,9.12c1.08,0,2.12,0,3.17,0a1.13,1.13,0,0,0,1.14-1c.13-.91-.16-1.58-.79-1.8a2,2,0,0,0-.54-.06h-3Zm0-4.69c1.09,0,2.16,0,3.22,0a.82.82,0,0,0,.59-.48,4.16,4.16,0,0,0,.06-1.32A.65.65,0,0,0,5.83,2C4.76,2,3.68,2,2.58,2Z" style="fill:#eef1f2"/><path d="M17.87,7.63c-.6,0-1.21,0-1.82,0H12.18a1.62,1.62,0,0,0,1.29,1.85c1.21.27,2.09-.13,2.39-1.13h1.92a2.51,2.51,0,0,1-1,2.18,4.48,4.48,0,0,1-3.29.76,5.65,5.65,0,0,1-1.68-.4A3.5,3.5,0,0,1,9.79,8.09a4.86,4.86,0,0,1,.75-3.61,3.63,3.63,0,0,1,3-1.62,5,5,0,0,1,1.22,0,3.37,3.37,0,0,1,3,2.79c.05.2.1.4.14.61ZM15.68,6.14a1.56,1.56,0,0,0-1.59-1.66,1.84,1.84,0,0,0-1.94,1.66Z" style="fill:#eef1f2"/><path d="M11.62.68c.13,0,.24,0,.36,0,1.27,0,2.54,0,3.81,0,.31,0,.42.08.41.4,0,1,0,1-1,1h-3.6Z" style="fill:#eef1f2"/></g></g></svg>