<svg version="1.1" xmlns="http://www.w3.org/2000/svg" xmlns:xlink="http://www.w3.org/1999/xlink" x="0px" y="0px" width="77.7px"
	 height="73.24px" viewBox="0 0 77.7 73.24" style="overflow:visible;enable-background:new 0 0 77.7 73.24;" xml:space="preserve">
<style type="text/css">
	.st0{fill:#82CCDF;}
	.st1{fill:#6A7076;}
	.st2{fill:#EA6572;}
</style>
<defs>
</defs>
<g>
	<g>
		<path class="st0" d="M40.59,23.3l-4.28-2.81c2.6-0.29,5.34-0.13,7.77,0.45L40.59,23.3z"/>
		<path class="st0" d="M75.91,45.1L53.44,67.57c-7.57,7.57-21.62,7.57-29.18,0L1.79,45.1c-2.79-2.79-2.16-6.38,0.8-9.37
			c1.31-1.34,3.11-2.58,5.28-3.54l0.93-0.42l22.04-9.9c0.76-0.35,1.59-0.63,2.47-0.85l7.15,4.87l5.98-4.18
			c0.14,0.04,0.28,0.1,0.41,0.16l22.04,9.9l0.93,0.42c2.17,0.96,3.96,2.2,5.28,3.54C78.07,38.72,78.71,42.31,75.91,45.1z"/>
	</g>
	<g>
		<path class="st1" d="M28.14,15.12l5.13-2.8c1.68-0.92,3.82-1.03,5.17-0.25c1.4,0.79,1.23,2.07-0.46,3.08l-5.14,3.05L28.14,15.12z"
			/>
		<path class="st1" d="M34.45,19.25l5.41-3.3c1.89-1.15,4.41-1.25,6.17-0.26c1.81,1.03,1.86,2.66-0.03,3.93l-1.92,1.3l-3.49,2.36
			l-4.28-2.81L34.45,19.25z"/>
		<path class="st1" d="M75.91,34.93L53.44,57.4c-7.57,7.58-21.62,7.58-29.18,0L2.59,35.73l-0.8-0.8c-2.79-2.79-2.16-6.38,0.79-9.37
			c1.32-1.34,3.12-2.58,5.29-3.54l22.97-10.31c0.53-0.24,1.1-0.45,1.68-0.63c-0.08,0.04-0.16,0.08-0.25,0.12l-7.5,4l8.54,5.81
			l7.15,4.87l5.98-4.18l1.83-1.28c2.59-1.81,2.36-4.16-0.35-5.65c-1.79-0.99-4.18-1.19-6.79-0.69c0.52-1.25,0.35-2.22-1.23-3.1
			c-0.75-0.41-1.62-0.67-2.56-0.76c3.35-0.22,6.83,0.28,9.51,1.48l22.97,10.31c2.17,0.96,3.96,2.2,5.29,3.54
			C78.07,28.54,78.71,32.14,75.91,34.93z"/>
	</g>
	<path class="st0" d="M37.99,15.15l-5.14,3.04l-4.7-3.07l5.13-2.8c1.69-0.93,3.82-1.03,5.17-0.24
		C39.84,12.86,39.67,14.14,37.99,15.15z"/>
	<path class="st0" d="M46,19.64l-1.92,1.31l-3.5,2.36l-4.28-2.81l-1.86-1.23l5.4-3.3c1.9-1.14,4.43-1.25,6.18-0.26
		C47.84,16.73,47.89,18.36,46,19.64z"/>
	<path class="st0" d="M69.83,11.85L46.87,1.53c-4.56-2.04-11.47-2.04-16.04,0L7.86,11.85c-6.95,3.13-10.12,8.87-6.07,12.92
		l0.79,0.79l6.22,6.21l15.46,15.46c7.56,7.58,21.62,7.58,29.18,0L68.9,31.76l6.22-6.21l0.79-0.79
		C79.96,20.72,76.8,14.98,69.83,11.85z M48.29,20.43l-1.83,1.28l-5.99,4.18l-7.15-4.87l-8.54-5.81l7.5-4
		c0.08-0.05,0.17-0.08,0.24-0.12c1.51-0.75,3.26-1.03,4.84-0.85c0.93,0.09,1.81,0.35,2.56,0.76c1.58,0.88,1.75,1.84,1.23,3.1
		c2.6-0.52,4.99-0.3,6.79,0.68C50.64,16.27,50.87,18.62,48.29,20.43z"/>
	<path class="st2" d="M47.94,14.78c-1.8-0.99-4.18-1.2-6.79-0.68c0.52-1.26,0.35-2.22-1.23-3.1c-0.75-0.41-1.63-0.67-2.56-0.76
		c-1.58-0.18-3.33,0.11-4.84,0.85c-0.08,0.05-0.17,0.08-0.24,0.12l-7.5,4l8.54,5.81l7.15,4.87l5.99-4.18l1.83-1.28
		C50.87,18.62,50.64,16.27,47.94,14.78z M32.84,18.19l-4.7-3.07l5.13-2.8c1.69-0.93,3.82-1.03,5.17-0.24
		c1.4,0.79,1.23,2.07-0.46,3.07L32.84,18.19z M46,19.64l-1.92,1.31l-3.5,2.36l-4.28-2.81l-1.86-1.23l5.4-3.3
		c1.9-1.14,4.43-1.25,6.18-0.26C47.84,16.73,47.89,18.36,46,19.64z"/>
</g>
</svg>
