<svg xmlns="http://www.w3.org/2000/svg" viewBox="0 0 48.3 63.02"><g id="Camada_2" data-name="Camada 2"><g id="Camada_1-2" data-name="Camada 1"><path d="M31.83,18.89a69.61,69.61,0,0,1-.55,8.49A124.15,124.15,0,0,1,29,39.93c-1,4.27-2.19,8.49-3.48,12.68-.14.45-.29.89-.42,1.35a.33.33,0,0,1-.38.27q-.68,0-1.35,0a.37.37,0,0,1-.43-.32c-.74-2.5-1.51-5-2.22-7.51-.84-2.93-1.56-5.89-2.21-8.86-.71-3.29-1.31-6.59-1.73-9.93a68.18,68.18,0,0,1-.56-10.5,36.91,36.91,0,0,1,1.33-9.4,15.77,15.77,0,0,1,2.31-5A7.47,7.47,0,0,1,22.36.45a3.3,3.3,0,0,1,3.26,0A7.71,7.71,0,0,1,28.38,3a16.46,16.46,0,0,1,2.16,4.84,31.64,31.64,0,0,1,1,5.29A45.8,45.8,0,0,1,31.83,18.89Z" style="fill:#82ccdf"/><path d="M21.89,54.12c-.09-.08-.18-.14-.25-.21A35.28,35.28,0,0,1,17,48.71,75.23,75.23,0,0,1,9.43,36.22a65,65,0,0,1-3.68-9.13,36,36,0,0,1-1.4-6.32,18.07,18.07,0,0,1,0-4.47A19.15,19.15,0,0,1,6.56,9.42,17.82,17.82,0,0,1,14.12,2,20.12,20.12,0,0,1,19.87,0a1.25,1.25,0,0,1,.19,0h.19c-.07.06-.1.09-.14.1a16.81,16.81,0,0,0-6,4.66A19.09,19.09,0,0,0,10,13.65a27.1,27.1,0,0,0-.35,6.79,52.35,52.35,0,0,0,2.43,12.21,82.5,82.5,0,0,0,3.46,9.14,108.3,108.3,0,0,0,5.89,11.5l.44.74S21.9,54.06,21.89,54.12Z" style="fill:#82ccdf"/><path d="M26.33,54c.16-.26.31-.52.46-.78a111.22,111.22,0,0,0,6-11.76A80.33,80.33,0,0,0,37,29.63a50.1,50.1,0,0,0,1.45-7.86,27.63,27.63,0,0,0-.26-8.17A19,19,0,0,0,33,3.53,16.52,16.52,0,0,0,28.2.13.29.29,0,0,1,28.07,0a1.22,1.22,0,0,1,.27,0A19.07,19.07,0,0,1,38.63,5.29a18.41,18.41,0,0,1,5,9.58,19.35,19.35,0,0,1,.27,5.93,34.67,34.67,0,0,1-1.19,5.6,66.55,66.55,0,0,1-4.64,11.31,74.65,74.65,0,0,1-6.82,11,35.3,35.3,0,0,1-4.56,5.13l-.29.24Z" style="fill:#82ccdf"/><path d="M19.7,53.62c-.32-.3-.66-.58-1-.89A63.18,63.18,0,0,1,13,46.42,79.26,79.26,0,0,1,5.57,35.37a50.61,50.61,0,0,1-4.25-9.72A29.09,29.09,0,0,1,.14,20.36a16.39,16.39,0,0,1,1.72-9.94A17,17,0,0,1,7.64,4.23C8.32,3.79,9,3.41,9.75,3A.47.47,0,0,1,10,2.94l-.26.18A18.24,18.24,0,0,0,3.92,9.36,16.66,16.66,0,0,0,2,15.22a21.87,21.87,0,0,0,.21,6.51A41.2,41.2,0,0,0,5.87,32.84a80.29,80.29,0,0,0,6.78,11.48c2.1,3,4.35,5.92,6.71,8.74.14.16.27.33.4.49Z" style="fill:#82ccdf"/><path d="M28.57,53.51l.64-.79a112.88,112.88,0,0,0,9.15-12.48,67.66,67.66,0,0,0,5.36-10.31,37.81,37.81,0,0,0,2.43-8.47A22,22,0,0,0,46.28,15a16.45,16.45,0,0,0-3.71-8.28,19.49,19.49,0,0,0-4.06-3.63.69.69,0,0,1-.23-.22l.14.05a17.72,17.72,0,0,1,8.1,7.61,15.54,15.54,0,0,1,1.71,5.92,22.13,22.13,0,0,1-.75,7.38,47.2,47.2,0,0,1-4.5,11A79.33,79.33,0,0,1,32.11,50.11c-1,1.12-2.13,2.15-3.2,3.22a3.36,3.36,0,0,1-.29.24Z" style="fill:#82ccdf"/><path d="M28.94,57.39l-.12.6c-.37,1.56-.75,3.13-1.12,4.69-.08.33-.08.33-.42.33H20.69c-.2,0-.32,0-.38-.26-.39-1.72-.8-3.43-1.2-5.15,0-.06,0-.13,0-.22Z" style="fill:#82ccdf"/></g></g></svg>