<svg version="1.1" xmlns="http://www.w3.org/2000/svg" xmlns:xlink="http://www.w3.org/1999/xlink" x="0px" y="0px" width="73.24px"
	 height="73.24px" viewBox="0 0 73.24 73.24" style="overflow:visible;enable-background:new 0 0 73.24 73.24;"
	 xml:space="preserve">
<style type="text/css">
	.st0{fill:#82CCDF;}
</style>
<defs>
</defs>
<path class="st0" d="M72.19,39.17L39.17,72.19c-1.4,1.4-3.68,1.4-5.09,0L1.05,39.17c-1.4-1.4-1.4-3.68,0-5.09l0.65-0.65
	c0.06-0.07,0.12-0.13,0.18-0.19c7.02-7.05,14.07-14.08,21.1-21.14c0.11-0.11,0.21-0.2,0.3-0.25c0.24-0.14,0.43-0.06,0.73,0.24
	c2.38,2.42,4.8,4.8,7.17,7.22c0.24,0.24,0.36,0.77,0.28,1.11c-0.61,2.59,0.32,4.98,2.6,6.3c0.49,0.28,0.62,0.58,0.62,1.1
	c-0.01,6.09-0.02,12.19,0,18.28c0,0.57-0.16,0.88-0.67,1.18c-1.98,1.15-3.05,3.39-2.7,5.48c0.43,2.54,2.37,4.46,4.73,4.69
	c2.67,0.26,5.01-1.14,5.9-3.56c0.89-2.4,0-4.96-2.2-6.53c-0.27-0.19-0.53-0.63-0.53-0.95c-0.03-6.06-0.02-12.12-0.02-18.18
	c0-0.2,0.08-0.4,0.12-0.6c0.17,0.12,0.37,0.22,0.51,0.36c2.07,2.06,4.12,4.14,6.21,6.18c0.48,0.47,0.62,0.85,0.45,1.53
	c-0.54,2.06,0.04,3.87,1.59,5.3c1.52,1.41,3.33,1.84,5.32,1.23c2.8-0.86,4.44-3.74,3.75-6.51c-0.72-2.89-3.43-4.66-6.35-4.12
	c-0.5,0.09-0.9,0.17-1.34-0.29c-2.32-2.38-4.7-4.71-7.03-7.09c-0.21-0.21-0.34-0.66-0.28-0.95c0.79-4.15-2.47-7.45-6.61-6.69
	c-0.3,0.05-0.75-0.05-0.96-0.26c-2.51-2.46-4.98-4.96-7.48-7.44c-0.25-0.25-0.32-0.42-0.22-0.62c0.04-0.08,0.12-0.17,0.22-0.27
	c1.17-1.14,2.28-2.34,3.48-3.45c0.07-0.07,0.15-0.14,0.22-0.2l3.29-3.29c1.4-1.4,3.68-1.4,5.09,0l33.02,33.02
	C73.59,35.48,73.59,37.76,72.19,39.17z"/>
</svg>
