<svg xmlns="http://www.w3.org/2000/svg" viewBox="0 0 70.05 67.76"><g id="Camada_2" data-name="Camada 2"><g id="Camada_1-2" data-name="Camada 1"><path d="M28.16,50c-.57,1.44-1.09,2.84-1.68,4.21a1.55,1.55,0,0,1-.77.72c-3.86,1.53-7.21.44-9.44-3.07a7.21,7.21,0,0,0-4.57-3.51,4.7,4.7,0,0,0-1.83,0c-.67.12-.72.59-.3,1.07a3.55,3.55,0,0,0,.86.73A9.5,9.5,0,0,1,14.29,55a7.67,7.67,0,0,0,7.08,4.92c1.58.13,3.17,0,5,0v2.5c0,1.07,0,2.15,0,3.22,0,1.74-1,2.57-2.67,1.89a47.27,47.27,0,0,1-7.55-3.63A33.81,33.81,0,0,1,.25,38.64,34.55,34.55,0,0,1,18.3,4.23,35.18,35.18,0,0,1,65.77,18.08a34.52,34.52,0,0,1-6,41.25,34.91,34.91,0,0,1-13,8.12c-2,.72-3,0-3-2.13,0-2.8,0-5.61,0-8.42a9.6,9.6,0,0,0-2.18-6.76c1.7-.36,3.3-.63,4.85-1C52.48,47.44,56,43.5,57,37.33c.57-3.46.7-6.92-.88-10.18-.53-1.08-1.31-2-1.91-3.08A1.58,1.58,0,0,1,54,23a12.75,12.75,0,0,0-.4-8,1.22,1.22,0,0,0-.94-.65,29.74,29.74,0,0,0-4.59,1.19c-1.28.49-2.42,1.33-3.66,2a2.16,2.16,0,0,1-1.33.24,34.55,34.55,0,0,0-16.27,0,2.11,2.11,0,0,1-1.23-.29,48.55,48.55,0,0,0-6.3-2.85c-3-.88-2.72-.44-3.35,2A12,12,0,0,0,16,22.91a1.28,1.28,0,0,1-.09,1c-3.14,3.66-3.64,8-3,12.52,1,7.55,5.53,12.06,13.38,13.28Z" style="fill:#82ccdf"/></g></g></svg>