<svg xmlns="http://www.w3.org/2000/svg" viewBox="0 0 63.11 63.08"><g id="Camada_2" data-name="Camada 2"><g id="Camada_1-2" data-name="Camada 1"><polygon points="29.01 21.04 35.53 35.85 22.44 35.85 29.01 21.04" style="fill:#82ccdf"/><path d="M59.59,0H3.49A3.5,3.5,0,0,0,0,3.49V59.62a3.48,3.48,0,0,0,3.49,3.46h56.1a3.49,3.49,0,0,0,3.52-3.46V3.49A3.51,3.51,0,0,0,59.59,0ZM39.69,45.27l-2.83-6.4H21.13l-2.82,6.4h-3.5L27.26,17.1h3.47L43.18,45.27Zm8.9,0h-3.1V24.06h3.1ZM47.07,20.2a2,2,0,1,1,2-2A2.06,2.06,0,0,1,47.07,20.2Z" style="fill:#82ccdf"/></g></g></svg>