<svg xmlns="http://www.w3.org/2000/svg" viewBox="0 0 17.87 17.89"><g id="Camada_2" data-name="Camada 2"><g id="Camada_1-2" data-name="Camada 1"><path d="M8.94,17.89h0l-2.61,0c-.54,0-1.09,0-1.63-.09a5.77,5.77,0,0,1-1.95-.53,4.07,4.07,0,0,1-1.09-.75A4.87,4.87,0,0,1,1,15.73,5.14,5.14,0,0,1,.22,14,8.24,8.24,0,0,1,.05,12.7c0-.93,0-1.87,0-2.8C0,8.76,0,7.61,0,6.46c0-.41,0-.83,0-1.24a7.48,7.48,0,0,1,.11-1A5.46,5.46,0,0,1,.78,2.42a4.53,4.53,0,0,1,.88-1.07A4.19,4.19,0,0,1,2.5.74,5.12,5.12,0,0,1,3.56.31,6.38,6.38,0,0,1,5,.07c.51,0,1,0,1.52,0L8.38,0H11l1.35,0c.4,0,.8,0,1.2.1a5.4,5.4,0,0,1,1.94.67A4.44,4.44,0,0,1,17.1,2.45a5.08,5.08,0,0,1,.61,1.75,7,7,0,0,1,.11,1.12c0,.38,0,.76,0,1.15s0,.54,0,.81c0,1.28,0,2.56,0,3.84,0,.47,0,.93-.05,1.39a7.45,7.45,0,0,1-.09,1.06,5.69,5.69,0,0,1-.54,1.71,4.77,4.77,0,0,1-1.47,1.65,4.83,4.83,0,0,1-1.3.61,6.17,6.17,0,0,1-1.4.26c-.39,0-.77,0-1.15.05l-1.31,0Zm0-1.64h0l1,0c.67,0,1.33,0,2,0,.37,0,.73,0,1.09,0a4.29,4.29,0,0,0,1.13-.24,2.89,2.89,0,0,0,1.62-1.33,3.91,3.91,0,0,0,.39-1.15,7.3,7.3,0,0,0,.09-.94c0-.42,0-.84,0-1.26,0-1.64,0-3.27,0-4.9,0-.44,0-.88-.06-1.31A4.88,4.88,0,0,0,16,4a3,3,0,0,0-1.26-1.71,3.59,3.59,0,0,0-1.29-.47,8.33,8.33,0,0,0-1.12-.11L11,1.63h-.68c-1.5,0-3,0-4.5,0l-.92.05A4.36,4.36,0,0,0,3.57,2a2.92,2.92,0,0,0-1.27,1,3,3,0,0,0-.46,1.07A4.75,4.75,0,0,0,1.69,5.2c0,.42-.05.83-.05,1.25,0,2,0,3.91,0,5.86a7.73,7.73,0,0,0,.11,1.18,3.21,3.21,0,0,0,.7,1.56,3.09,3.09,0,0,0,.82.67,4,4,0,0,0,1.42.43c.52.06,1,.08,1.56.09Z" style="fill:#eef1f2"/><path d="M8.93,13.53A4.59,4.59,0,1,1,13.53,9,4.59,4.59,0,0,1,8.93,13.53Zm0-1.63a3,3,0,1,0-3-3A2.95,2.95,0,0,0,8.93,11.9Z" style="fill:#eef1f2"/><path d="M12.62,4.17A1.08,1.08,0,1,1,13.7,5.26,1.08,1.08,0,0,1,12.62,4.17Z" style="fill:#eef1f2"/></g></g></svg>