<svg version="1.1" xmlns="http://www.w3.org/2000/svg" xmlns:xlink="http://www.w3.org/1999/xlink" x="0px" y="0px" width="63.1px"
	 height="63.08px" viewBox="0 0 63.1 63.08" style="overflow:visible;enable-background:new 0 0 63.1 63.08;" xml:space="preserve">
<style type="text/css">
	.st0{fill:#82CCDF;}
</style>
<defs>
</defs>
<path class="st0" d="M59.6,0H3.49C1.56,0,0,1.56,0,3.49V59.6c0,1.93,1.56,3.49,3.49,3.49H59.6c1.93,0,3.5-1.56,3.5-3.49V3.49
	C63.1,1.56,61.52,0,59.6,0z M36.2,47.61c0,4.81-3.42,8.23-8.26,8.23c-3.08,0-6.44-1.64-8.03-3.98l3.42-3.34
	c0.77,1.56,2.48,2.65,4.09,2.65c2.08,0,3.63-1.64,3.63-3.97V31.44h5.15V47.61z M48.21,55.84c-4.15,0-7.84-1.4-10.64-3.98l2.98-3.51
	c2.27,1.95,4.85,3.13,7.88,3.13c2.6,0,3.92-1.18,3.92-2.69c0-1.72-1.4-2.23-5.06-3.07c-5.07-1.15-8.66-2.58-8.66-7.22
	c0-4.44,3.63-7.47,8.86-7.47c3.92,0,6.95,1.22,9.4,3.32l-2.69,3.7c-2.14-1.7-4.54-2.65-6.84-2.65c-2.2,0-3.53,1.15-3.53,2.58
	c0,1.74,1.43,2.31,5.12,3.13c5.16,1.15,8.59,2.69,8.59,7.13C57.53,52.8,54.08,55.84,48.21,55.84z"/>
</svg>
