<svg xmlns="http://www.w3.org/2000/svg" viewBox="0 0 80.59 57.49"><g id="Camada_2" data-name="Camada 2"><g id="Camada_1-2" data-name="Camada 1"><path d="M50.88,57.49a3.79,3.79,0,0,1-3.28-1.91L37.69,38.34,19.74,42.63a3.79,3.79,0,0,1-4.37-2.2L.31,5.29A3.74,3.74,0,0,1,.63,1.71,3.78,3.78,0,0,1,3.79,0H15.44a3.8,3.8,0,0,1,3.29,1.9L38.54,36.35l28.2-6.74L59.8,20.27a3.79,3.79,0,0,1,2.24-6l6.81-1.48a3.76,3.76,0,0,1,3.72,1.28l7.13,8.55a3.79,3.79,0,0,1-2,6.12l-8,1.91L78.2,42.13a3.81,3.81,0,0,1-1.69,5.81L52.25,57.23A3.66,3.66,0,0,1,50.88,57.49ZM39.44,37.92l9.66,16.8a2.06,2.06,0,0,0,2.53.9l24.26-9.3a2.07,2.07,0,0,0,.92-3.16l-9-12ZM3.79,1.73A2.06,2.06,0,0,0,1.9,4.61L17,39.75A2.07,2.07,0,0,0,19.34,41l17.45-4.18-19.56-34a2.06,2.06,0,0,0-1.79-1ZM69.66,14.46a1.7,1.7,0,0,0-.44,0L62.41,16a2.06,2.06,0,0,0-1.22,3.25l7.38,9.93,8.7-2.08a2.06,2.06,0,0,0,1.11-3.33L71.24,15.2A2.05,2.05,0,0,0,69.66,14.46Z" style="fill:#ea6572"/></g></g></svg>