<svg version="1.1" xmlns="http://www.w3.org/2000/svg" xmlns:xlink="http://www.w3.org/1999/xlink" x="0px" y="0px"
	 width="265.16px" height="61.92px" viewBox="0 0 265.16 61.92" style="overflow:visible;enable-background:new 0 0 265.16 61.92;"
	 xml:space="preserve">
<style type="text/css">
	.svg-highlight{fill:#82CCDF;}
</style>
<defs>
</defs>
<g class="svg-highlight">
	<path  d="M19.01,24.69v3.83H0V0.49h4.16v24.19H19.01z M39.75,7.43v21.09h-4.04v-3.06c-1.27,2.08-3.84,3.55-6.69,3.55
		c-4.65,0-7.91-3.39-7.91-8.16V7.43h3.96v12.73c0,3.14,2,5.35,4.86,5.35c2.94,0,5.47-1.92,5.79-4.41V7.43H39.75z M42.45,17.95
		c0-6,5.1-11.02,11.14-11.02c3.02,0,5.75,1.27,7.75,3.27l-2.73,2.53c-1.27-1.43-3.1-2.29-5.06-2.29c-3.84,0-7.02,3.43-7.02,7.51
		c0,4.12,3.18,7.55,7.06,7.55c1.96,0,3.84-0.9,5.14-2.37l2.73,2.49c-2.04,2.08-4.77,3.39-7.91,3.39
		C47.55,29.01,42.45,23.95,42.45,17.95z M81.43,15.75v12.77h-3.96v-2.9c-1.55,2.2-4.45,3.39-7.02,3.39c-4.49,0-7.79-2.61-7.79-6.73
		c0-4.2,3.8-7.02,8.45-7.02c2.08,0,4.32,0.45,6.36,1.14v-0.65c0-2.65-1.22-5.47-5.42-5.47c-2.08,0-4.12,0.82-5.96,1.75l-1.47-2.98
		c3.02-1.51,5.67-2.12,8-2.12C78.29,6.94,81.43,10.53,81.43,15.75z M77.47,21.91V19.1c-1.71-0.53-3.67-0.82-5.75-0.82
		c-2.82,0-5.18,1.59-5.18,3.88s2.04,3.67,4.69,3.67C73.84,25.83,76.78,24.52,77.47,21.91z M83.85,25.87l1.92-2.9
		c2.24,1.63,4.65,2.57,7.14,2.57c2.37,0,4-1.1,4-2.73c0-1.96-2.16-2.57-4.77-3.31c-4.86-1.35-7.26-2.73-7.26-6.16
		c-0.04-3.87,3.18-6.4,7.67-6.4c2.73,0,5.51,0.94,7.79,2.45l-1.8,2.98c-2.04-1.27-4.16-1.96-6-1.96c-2.08,0-3.71,0.9-3.71,2.49
		c0,1.63,1.31,2.12,4.86,3.22c3.47,1.02,7.18,2.16,7.18,6.37c0,4-3.39,6.53-8,6.53C89.76,29.01,86.38,27.91,83.85,25.87z
		 M104.13,0.49h4.12l9.83,18.32l9.83-18.32h4.12v28.03h-4.12V8.57l-9.83,18.32l-9.83-18.32v19.95h-4.12V0.49z M135.36,17.95
		c0-6,5.1-11.02,11.14-11.02c6,0,11.06,5.02,11.06,11.02s-5.06,11.06-11.06,11.06C140.46,29.01,135.36,23.95,135.36,17.95z
		 M153.52,17.95c0-4.08-3.22-7.51-7.02-7.51c-3.88,0-7.1,3.43-7.1,7.51c0,4.12,3.22,7.55,7.1,7.55
		C150.3,25.5,153.52,22.08,153.52,17.95z M172.34,6.94v3.51c-4.37,0-7.47,2.41-7.83,6.08v12h-4.04V7.43h4.04v4.04
		C165.85,8.69,168.71,6.94,172.34,6.94z M194.34,7.43v18.85c0,5.42-4.45,9.26-10.69,9.26c-3.55,0-6.81-1.18-8.81-2.81l1.59-3.02
		c1.55,1.47,4.08,2.33,6.61,2.33c4.53,0,7.26-2.16,7.26-5.83v-3.06c-1.67,2.41-4.29,3.83-7.47,3.83c-5.55,0-9.59-4.16-9.59-10.04
		c0-5.87,4.04-10,9.59-10c3.18,0,5.88,1.51,7.47,3.88V7.43H194.34z M190.3,16.93c0-3.79-2.69-6.49-6.45-6.49
		c-3.75,0-6.41,2.69-6.41,6.49c0,3.84,2.65,6.53,6.41,6.53C187.6,23.46,190.3,20.77,190.3,16.93z M216.02,15.75v12.77h-3.96v-2.9
		c-1.55,2.2-4.45,3.39-7.02,3.39c-4.49,0-7.79-2.61-7.79-6.73c0-4.2,3.8-7.02,8.45-7.02c2.08,0,4.32,0.45,6.37,1.14v-0.65
		c0-2.65-1.22-5.47-5.43-5.47c-2.08,0-4.12,0.82-5.96,1.75l-1.47-2.98c3.02-1.51,5.67-2.12,8-2.12
		C212.87,6.94,216.02,10.53,216.02,15.75z M212.06,21.91V19.1c-1.71-0.53-3.67-0.82-5.75-0.82c-2.82,0-5.18,1.59-5.18,3.88
		s2.04,3.67,4.69,3.67C208.43,25.83,211.36,24.52,212.06,21.91z M240.06,0v28.52h-4v-3.67c-1.63,2.61-4.24,4.16-7.51,4.16
		c-5.55,0-9.71-4.57-9.71-11.06c0-6.44,4.16-11.02,9.71-11.02c3.26,0,5.88,1.55,7.51,4.12V0H240.06z M236.06,17.95
		c0-4.41-2.73-7.51-6.53-7.51c-3.88,0-6.61,3.1-6.61,7.51c0,4.41,2.73,7.55,6.61,7.55C233.33,25.5,236.06,22.36,236.06,17.95z
		 M242.97,17.95c0-6,5.1-11.02,11.14-11.02c6,0,11.06,5.02,11.06,11.02s-5.06,11.06-11.06,11.06
		C248.07,29.01,242.97,23.95,242.97,17.95z M261.12,17.95c0-4.08-3.22-7.51-7.02-7.51c-3.88,0-7.1,3.43-7.1,7.51
		c0,4.12,3.22,7.55,7.1,7.55C257.9,25.5,261.12,22.08,261.12,17.95z"/>
	<path  d="M29.76,50.15V49.1l10.84-5.24v1.05l-9.72,4.72l9.72,4.72v1.05L29.76,50.15z M44.64,41.45h5.6
		c4.91,0,8.39,3.38,8.39,8.17c0,4.79-3.48,8.2-8.39,8.2h-5.6V41.45z M50.24,56.96c4.41,0,7.53-3.05,7.53-7.34s-3.12-7.32-7.53-7.32
		H45.5v14.65H50.24z M71.89,55.56l0.6,0.64c-1.02,1.12-3.17,1.91-5.15,1.91c-3.29,0-6.05-2.95-6.05-6.48c0-3.6,2.67-6.41,6.05-6.41
		c3.53,0,5.86,2.74,5.86,6.84H62.17c0.19,2.86,2.5,5.2,5.17,5.2C69.1,57.25,70.87,56.67,71.89,55.56z M62.17,51.19h10.17
		c-0.14-3.07-2.1-5.12-5-5.12C64.57,46.07,62.36,48.31,62.17,51.19z M74.95,45.5h0.93l4.98,10.87l4.98-10.87h0.93l-5.65,12.32H80.6
		L74.95,45.5z M106.06,55.56l0.6,0.64c-1.02,1.12-3.17,1.91-5.15,1.91c-3.29,0-6.05-2.95-6.05-6.48c0-3.6,2.67-6.41,6.05-6.41
		c3.53,0,5.86,2.74,5.86,6.84H96.34c0.19,2.86,2.5,5.2,5.17,5.2C103.27,57.25,105.04,56.67,106.06,55.56z M96.34,51.19h10.17
		c-0.14-3.07-2.1-5.12-5-5.12C98.75,46.07,96.53,48.31,96.34,51.19z M117.63,41.45h5.6c4.91,0,8.39,3.38,8.39,8.17
		c0,4.79-3.48,8.2-8.39,8.2h-5.6V41.45z M123.23,56.96c4.41,0,7.53-3.05,7.53-7.34s-3.12-7.32-7.53-7.32h-4.74v14.65H123.23z
		 M144.87,55.56l0.6,0.64c-1.02,1.12-3.17,1.91-5.15,1.91c-3.29,0-6.05-2.95-6.05-6.48c0-3.6,2.67-6.41,6.05-6.41
		c3.53,0,5.86,2.74,5.86,6.84h-11.03c0.19,2.86,2.5,5.2,5.17,5.2C142.09,57.25,143.85,56.67,144.87,55.56z M135.15,51.19h10.17
		c-0.14-3.07-2.1-5.12-5-5.12C137.56,46.07,135.34,48.31,135.15,51.19z M148.37,56.27l0.52-0.67c1.43,1.02,3.12,1.64,4.57,1.64
		c1.86,0,3.41-1.05,3.41-2.29c0-1.38-1.02-2.24-3.57-3.02c-2.93-0.91-4.1-1.93-4.1-3.57c0-1.72,1.86-3.15,4.07-3.15
		c1.45,0,3.07,0.52,4.41,1.38l-0.52,0.67c-1.19-0.74-2.62-1.19-3.88-1.19c-1.74,0-3.22,1-3.22,2.19c0,1.24,1.05,2.07,3.67,2.91
		c2.86,0.91,4,1.95,4,3.69c0,1.76-1.96,3.24-4.27,3.24C151.7,58.1,149.8,57.41,148.37,56.27z M160.37,42.07
		c0-0.38,0.31-0.71,0.71-0.71c0.38,0,0.71,0.34,0.71,0.71c0,0.41-0.33,0.72-0.71,0.72C160.68,42.79,160.37,42.47,160.37,42.07z
		 M160.66,45.5h0.86v12.32h-0.86V45.5z M175.54,45.5v11.01c0,3.17-2.31,5.41-5.6,5.41c-1.79,0-3.86-0.69-4.98-1.64l0.43-0.76
		c1.07,0.91,2.93,1.55,4.48,1.55c2.81,0,4.81-1.88,4.81-4.55v-2.81c-0.91,2.1-2.88,3.22-5.15,3.22c-2.93,0-5.39-2.67-5.39-5.86
		c0-3.17,2.46-5.84,5.39-5.84c2.34,0,4.27,1.1,5.15,3.19V45.5H175.54z M174.69,51.05c0-2.91-2.17-4.98-4.98-4.98
		c-2.55,0-4.69,2.29-4.69,4.98c0,2.72,2.14,5,4.69,5C172.52,56.05,174.69,53.98,174.69,51.05z M188.86,49.74v8.08H188v-7.96
		c0-2.22-1.6-3.79-3.86-3.79c-2.31,0-3.93,1.62-3.93,3.88v7.86h-0.86V45.5h0.86v2.15c0.62-1.48,2.12-2.43,4.05-2.43
		C186.95,45.21,188.86,47.1,188.86,49.74z M202.4,55.56l0.6,0.64c-1.02,1.12-3.17,1.91-5.15,1.91c-3.29,0-6.05-2.95-6.05-6.48
		c0-3.6,2.67-6.41,6.05-6.41c3.53,0,5.86,2.74,5.86,6.84h-11.03c0.19,2.86,2.5,5.2,5.17,5.2C199.62,57.25,201.38,56.67,202.4,55.56z
		 M192.68,51.19h10.17c-0.14-3.07-2.1-5.12-5-5.12C195.09,46.07,192.87,48.31,192.68,51.19z M212.43,45.21v0.86
		c-2.79,0-4.77,2.03-4.77,4.86v6.89h-0.86V45.5h0.86v2.81C208.18,46.57,210.16,45.21,212.43,45.21z M221.07,40.11H222l-8.36,19.47
		h-0.93L221.07,40.11z M223.69,54.34l9.72-4.72l-9.72-4.72v-1.05l10.84,5.24v1.05l-10.84,5.24V54.34z"/>
</g>
</svg>
