<svg xmlns="http://www.w3.org/2000/svg" viewBox="0 0 19.63 12.31"><g id="Camada_2" data-name="Camada 2"><g id="Camada_1-2" data-name="Camada 1"><path d="M16.75,0H2.88A2.88,2.88,0,0,0,0,2.88V9.44a2.88,2.88,0,0,0,2.88,2.87H16.75a2.88,2.88,0,0,0,2.88-2.87V2.88A2.88,2.88,0,0,0,16.75,0Zm0,1.25a1.61,1.61,0,0,1,.73.19c-1.24,1.18-4.61,4.09-7.66,4.09S3.39,2.62,2.15,1.44a1.61,1.61,0,0,1,.73-.19Zm1.63,8.19a1.63,1.63,0,0,1-1.63,1.63H2.88A1.63,1.63,0,0,1,1.25,9.44V2.88a1.86,1.86,0,0,1,.09-.48c1.4,1.32,5,4.38,8.48,4.38s7.07-3.06,8.47-4.38a1.86,1.86,0,0,1,.09.48Z" style="fill:#eef1f2"/></g></g></svg>