<svg xmlns="http://www.w3.org/2000/svg" viewBox="0 0 63.11 63.08"><g id="Camada_2" data-name="Camada 2"><g id="Camada_1-2" data-name="Camada 1"><path d="M32.06,26.13c0,3.76-3.13,6-7.7,6H16.68v-12h7.68C28.93,20.13,32.06,22.34,32.06,26.13Z" style="fill:#82ccdf"/><path d="M59.59,0H3.49A3.5,3.5,0,0,0,0,3.49V59.62a3.48,3.48,0,0,0,3.49,3.46h56.1a3.49,3.49,0,0,0,3.52-3.46V3.49A3.51,3.51,0,0,0,59.59,0ZM24.92,35.13H16.68V45.27h-3.2V17.1H24.92c5.84,0,10.39,3.71,10.39,9S30.76,35.13,24.92,35.13Zm20.3,10.63a14.45,14.45,0,0,1-8.78-3.15L38,40.35A12.29,12.29,0,0,0,45.22,43C48,43,49.9,41.7,49.9,39.69c0-2.29-2.46-3-5.32-3.84-5.14-1.48-7.11-3-7.11-6,0-3.86,3.2-6.25,7.43-6.25A14.06,14.06,0,0,1,52.48,26L51,28.34a11.3,11.3,0,0,0-6.1-2c-2.38,0-4.35,1.05-4.35,3.12,0,1.85,1.55,2.41,5.51,3.69C49.45,34.2,53,35.36,53,39.37S49.63,45.76,45.22,45.76Z" style="fill:#82ccdf"/></g></g></svg>