<svg xmlns="http://www.w3.org/2000/svg" viewBox="0 0 67.9 73.9"><g id="Camada_2" data-name="Camada 2"><g id="Camada_1-2" data-name="Camada 1"><path d="M67.89,42.7V56.13C67.89,66,52.7,73.9,33.94,73.9S0,66,0,56.13a7.69,7.69,0,0,1,0-.83v-.08L0,41.91l13.24.15a56,56,0,0,1,20.7-3.69,54.91,54.91,0,0,1,21.88,4.19Z" style="fill:#6a7076"/><path d="M67.89,30.23V43.67c0,9.82-15.19,17.77-33.95,17.77S0,53.49,0,43.67a7.69,7.69,0,0,1,0-.83v-.09L0,29.44l13.24.16a56,56,0,0,1,20.7-3.69,55.09,55.09,0,0,1,21.88,4.18Z" style="fill:#82ccdf"/><path d="M67.89,17.77V31.21C67.89,41,52.7,49,33.94,49S0,41,0,31.21a7.87,7.87,0,0,1,0-.84v-.08L0,17l13.24.15a56.22,56.22,0,0,1,20.7-3.69,54.91,54.91,0,0,1,21.88,4.19Z" style="fill:#6a7076"/><ellipse cx="33.95" cy="17.77" rx="33.94" ry="17.77" style="fill:#82ccdf"/></g></g></svg>